<svg width="48" height="43" viewBox="0 0 48 43" fill="none" xmlns="http://www.w3.org/2000/svg">
<path fill-rule="evenodd" clip-rule="evenodd" d="M3 21.5C3 26.4894 5.21249 31.2744 9.15076 34.8024C13.089 38.3305 18.4305 40.3125 24 40.3125C29.5695 40.3125 34.911 38.3305 38.8492 34.8024C42.7875 31.2744 45 26.4894 45 21.5C45 16.5106 42.7875 11.7256 38.8492 8.19755C34.911 4.66953 29.5695 2.6875 24 2.6875C18.4305 2.6875 13.089 4.66953 9.15076 8.19755C5.21249 11.7256 3 16.5106 3 21.5V21.5ZM48 21.5C48 27.2022 45.4714 32.6708 40.9706 36.7028C36.4697 40.7348 30.3652 43 24 43C17.6348 43 11.5303 40.7348 7.02944 36.7028C2.52856 32.6708 0 27.2022 0 21.5C0 15.7978 2.52856 10.3292 7.02944 6.2972C11.5303 2.26517 17.6348 0 24 0C30.3652 0 36.4697 2.26517 40.9706 6.2972C45.4714 10.3292 48 15.7978 48 21.5V21.5ZM13.5 20.1562C13.1022 20.1562 12.7206 20.2978 12.4393 20.5498C12.158 20.8018 12 21.1436 12 21.5C12 21.8564 12.158 22.1982 12.4393 22.4502C12.7206 22.7022 13.1022 22.8438 13.5 22.8438H30.879L24.438 28.6111C24.2985 28.7361 24.1879 28.8844 24.1124 29.0476C24.037 29.2109 23.9981 29.3858 23.9981 29.5625C23.9981 29.7392 24.037 29.9141 24.1124 30.0774C24.1879 30.2406 24.2985 30.3889 24.438 30.5139C24.5775 30.6388 24.743 30.7379 24.9252 30.8055C25.1075 30.8731 25.3028 30.9079 25.5 30.9079C25.6972 30.9079 25.8925 30.8731 26.0748 30.8055C26.257 30.7379 26.4225 30.6388 26.562 30.5139L35.562 22.4514C35.7017 22.3266 35.8125 22.1783 35.8881 22.015C35.9638 21.8518 36.0027 21.6767 36.0027 21.5C36.0027 21.3233 35.9638 21.1482 35.8881 20.985C35.8125 20.8217 35.7017 20.6734 35.562 20.5486L26.562 12.4861C26.4225 12.3612 26.257 12.2621 26.0748 12.1945C25.8925 12.1269 25.6972 12.0921 25.5 12.0921C25.3028 12.0921 25.1075 12.1269 24.9252 12.1945C24.743 12.2621 24.5775 12.3612 24.438 12.4861C24.2985 12.6111 24.1879 12.7594 24.1124 12.9226C24.037 13.0859 23.9981 13.2608 23.9981 13.4375C23.9981 13.6142 24.037 13.7891 24.1124 13.9524C24.1879 14.1156 24.2985 14.2639 24.438 14.3889L30.879 20.1562H13.5Z" fill="white"/>
</svg>
