<svg width="206" height="64" viewBox="0 0 206 64" fill="none" xmlns="http://www.w3.org/2000/svg">
<path d="M3.528 51.446H8.652V53H1.617V38.363H3.528V51.446ZM15.7005 53.189C14.6225 53.189 13.6425 52.944 12.7605 52.454C11.8925 51.964 11.2065 51.271 10.7025 50.375C10.2125 49.465 9.96745 48.415 9.96745 47.225C9.96745 46.049 10.2195 45.013 10.7235 44.117C11.2415 43.207 11.9415 42.514 12.8235 42.038C13.7055 41.548 14.6925 41.303 15.7845 41.303C16.8765 41.303 17.8635 41.548 18.7455 42.038C19.6275 42.514 20.3205 43.2 20.8245 44.096C21.3425 44.992 21.6015 46.035 21.6015 47.225C21.6015 48.415 21.3355 49.465 20.8035 50.375C20.2855 51.271 19.5785 51.964 18.6825 52.454C17.7865 52.944 16.7925 53.189 15.7005 53.189ZM15.7005 51.509C16.3865 51.509 17.0305 51.348 17.6325 51.026C18.2345 50.704 18.7175 50.221 19.0815 49.577C19.4595 48.933 19.6485 48.149 19.6485 47.225C19.6485 46.301 19.4665 45.517 19.1025 44.873C18.7385 44.229 18.2625 43.753 17.6745 43.445C17.0865 43.123 16.4495 42.962 15.7635 42.962C15.0635 42.962 14.4195 43.123 13.8315 43.445C13.2575 43.753 12.7955 44.229 12.4455 44.873C12.0955 45.517 11.9205 46.301 11.9205 47.225C11.9205 48.163 12.0885 48.954 12.4245 49.598C12.7745 50.242 13.2365 50.725 13.8105 51.047C14.3845 51.355 15.0145 51.509 15.7005 51.509ZM26.0251 43.361C26.3611 42.703 26.8371 42.192 27.4531 41.828C28.0831 41.464 28.8461 41.282 29.7421 41.282V43.256H29.2381C27.0961 43.256 26.0251 44.418 26.0251 46.742V53H24.1141V41.492H26.0251V43.361ZM42.4481 46.805C42.4481 47.169 42.4271 47.554 42.3851 47.96H33.1871C33.2571 49.094 33.6421 49.983 34.3421 50.627C35.0561 51.257 35.9171 51.572 36.9251 51.572C37.7511 51.572 38.4371 51.383 38.9831 51.005C39.5431 50.613 39.9351 50.095 40.1591 49.451H42.2171C41.9091 50.557 41.2931 51.46 40.3691 52.16C39.4451 52.846 38.2971 53.189 36.9251 53.189C35.8331 53.189 34.8531 52.944 33.9851 52.454C33.1311 51.964 32.4591 51.271 31.9691 50.375C31.4791 49.465 31.2341 48.415 31.2341 47.225C31.2341 46.035 31.4721 44.992 31.9481 44.096C32.4241 43.2 33.0891 42.514 33.9431 42.038C34.8111 41.548 35.8051 41.303 36.9251 41.303C38.0171 41.303 38.9831 41.541 39.8231 42.017C40.6631 42.493 41.3071 43.151 41.7551 43.991C42.2171 44.817 42.4481 45.755 42.4481 46.805ZM40.4741 46.406C40.4741 45.678 40.3131 45.055 39.9911 44.537C39.6691 44.005 39.2281 43.606 38.6681 43.34C38.1221 43.06 37.5131 42.92 36.8411 42.92C35.8751 42.92 35.0491 43.228 34.3631 43.844C33.6911 44.46 33.3061 45.314 33.2081 46.406H40.4741ZM58.8095 41.282C59.7055 41.282 60.5035 41.471 61.2035 41.849C61.9035 42.213 62.4565 42.766 62.8625 43.508C63.2685 44.25 63.4715 45.153 63.4715 46.217V53H61.5815V46.49C61.5815 45.342 61.2945 44.467 60.7205 43.865C60.1605 43.249 59.3975 42.941 58.4315 42.941C57.4375 42.941 56.6465 43.263 56.0585 43.907C55.4705 44.537 55.1765 45.454 55.1765 46.658V53H53.2865V46.49C53.2865 45.342 52.9995 44.467 52.4255 43.865C51.8655 43.249 51.1025 42.941 50.1365 42.941C49.1425 42.941 48.3515 43.263 47.7635 43.907C47.1755 44.537 46.8815 45.454 46.8815 46.658V53H44.9705V41.492H46.8815V43.151C47.2595 42.549 47.7635 42.087 48.3935 41.765C49.0375 41.443 49.7445 41.282 50.5145 41.282C51.4805 41.282 52.3345 41.499 53.0765 41.933C53.8185 42.367 54.3715 43.004 54.7355 43.844C55.0575 43.032 55.5895 42.402 56.3315 41.954C57.0735 41.506 57.8995 41.282 58.8095 41.282ZM73.1919 39.623C72.8279 39.623 72.5199 39.497 72.2679 39.245C72.0159 38.993 71.8899 38.685 71.8899 38.321C71.8899 37.957 72.0159 37.649 72.2679 37.397C72.5199 37.145 72.8279 37.019 73.1919 37.019C73.5419 37.019 73.8359 37.145 74.0739 37.397C74.3259 37.649 74.4519 37.957 74.4519 38.321C74.4519 38.685 74.3259 38.993 74.0739 39.245C73.8359 39.497 73.5419 39.623 73.1919 39.623ZM74.1159 41.492V53H72.2049V41.492H74.1159ZM79.2839 43.613C79.6619 42.955 80.2219 42.409 80.9639 41.975C81.7199 41.527 82.5949 41.303 83.5889 41.303C84.6109 41.303 85.5349 41.548 86.3609 42.038C87.2009 42.528 87.8589 43.221 88.3349 44.117C88.8109 44.999 89.0489 46.028 89.0489 47.204C89.0489 48.366 88.8109 49.402 88.3349 50.312C87.8589 51.222 87.2009 51.929 86.3609 52.433C85.5349 52.937 84.6109 53.189 83.5889 53.189C82.6089 53.189 81.7409 52.972 80.9849 52.538C80.2429 52.09 79.6759 51.537 79.2839 50.879V58.46H77.3729V41.492H79.2839V43.613ZM87.0959 47.204C87.0959 46.336 86.9209 45.58 86.5709 44.936C86.2209 44.292 85.7449 43.802 85.1429 43.466C84.5549 43.13 83.9039 42.962 83.1899 42.962C82.4899 42.962 81.8389 43.137 81.2369 43.487C80.6489 43.823 80.1729 44.32 79.8089 44.978C79.4589 45.622 79.2839 46.371 79.2839 47.225C79.2839 48.093 79.4589 48.856 79.8089 49.514C80.1729 50.158 80.6489 50.655 81.2369 51.005C81.8389 51.341 82.4899 51.509 83.1899 51.509C83.9039 51.509 84.5549 51.341 85.1429 51.005C85.7449 50.655 86.2209 50.158 86.5709 49.514C86.9209 48.856 87.0959 48.086 87.0959 47.204ZM95.6383 53.189C94.7563 53.189 93.9653 53.042 93.2653 52.748C92.5653 52.44 92.0123 52.02 91.6063 51.488C91.2003 50.942 90.9763 50.319 90.9343 49.619H92.9083C92.9643 50.193 93.2303 50.662 93.7063 51.026C94.1963 51.39 94.8333 51.572 95.6173 51.572C96.3453 51.572 96.9193 51.411 97.3393 51.089C97.7593 50.767 97.9693 50.361 97.9693 49.871C97.9693 49.367 97.7453 48.996 97.2973 48.758C96.8493 48.506 96.1563 48.261 95.2183 48.023C94.3643 47.799 93.6643 47.575 93.1183 47.351C92.5863 47.113 92.1243 46.77 91.7323 46.322C91.3543 45.86 91.1653 45.258 91.1653 44.516C91.1653 43.928 91.3403 43.389 91.6903 42.899C92.0403 42.409 92.5373 42.024 93.1813 41.744C93.8253 41.45 94.5603 41.303 95.3863 41.303C96.6603 41.303 97.6893 41.625 98.4733 42.269C99.2573 42.913 99.6773 43.795 99.7333 44.915H97.8223C97.7803 44.313 97.5353 43.83 97.0873 43.466C96.6533 43.102 96.0653 42.92 95.3233 42.92C94.6373 42.92 94.0913 43.067 93.6853 43.361C93.2793 43.655 93.0763 44.04 93.0763 44.516C93.0763 44.894 93.1953 45.209 93.4333 45.461C93.6853 45.699 93.9933 45.895 94.3573 46.049C94.7353 46.189 95.2533 46.35 95.9113 46.532C96.7373 46.756 97.4093 46.98 97.9273 47.204C98.4453 47.414 98.8863 47.736 99.2503 48.17C99.6283 48.604 99.8243 49.171 99.8383 49.871C99.8383 50.501 99.6633 51.068 99.3133 51.572C98.9633 52.076 98.4663 52.475 97.8223 52.769C97.1923 53.049 96.4643 53.189 95.6383 53.189ZM112.742 41.492V53H110.831V51.299C110.467 51.887 109.956 52.349 109.298 52.685C108.654 53.007 107.94 53.168 107.156 53.168C106.26 53.168 105.455 52.986 104.741 52.622C104.027 52.244 103.46 51.684 103.04 50.942C102.634 50.2 102.431 49.297 102.431 48.233V41.492H104.321V47.981C104.321 49.115 104.608 49.99 105.182 50.606C105.756 51.208 106.54 51.509 107.534 51.509C108.556 51.509 109.361 51.194 109.949 50.564C110.537 49.934 110.831 49.017 110.831 47.813V41.492H112.742ZM129.808 41.282C130.704 41.282 131.502 41.471 132.202 41.849C132.902 42.213 133.455 42.766 133.861 43.508C134.267 44.25 134.47 45.153 134.47 46.217V53H132.58V46.49C132.58 45.342 132.293 44.467 131.719 43.865C131.159 43.249 130.396 42.941 129.43 42.941C128.436 42.941 127.645 43.263 127.057 43.907C126.469 44.537 126.175 45.454 126.175 46.658V53H124.285V46.49C124.285 45.342 123.998 44.467 123.424 43.865C122.864 43.249 122.101 42.941 121.135 42.941C120.141 42.941 119.35 43.263 118.762 43.907C118.174 44.537 117.88 45.454 117.88 46.658V53H115.969V41.492H117.88V43.151C118.258 42.549 118.762 42.087 119.392 41.765C120.036 41.443 120.743 41.282 121.513 41.282C122.479 41.282 123.333 41.499 124.075 41.933C124.817 42.367 125.37 43.004 125.734 43.844C126.056 43.032 126.588 42.402 127.33 41.954C128.072 41.506 128.898 41.282 129.808 41.282Z" fill="white"/>
<path d="M135.405 0.997437C130.562 0.997437 126.437 3.42989 124.786 6.85467L114.963 6.85467C113.156 6.85467 111.422 7.43188 110.144 8.45932C108.866 9.48676 108.148 10.8803 108.148 12.3333C108.148 13.7863 108.866 15.1798 110.144 16.2073C111.422 17.2347 113.156 17.8119 114.963 17.8119L129.162 17.8119C131.016 18.7927 133.186 19.3152 135.405 19.3148C141.696 19.3148 146.798 15.2129 146.798 10.1571C146.798 5.09744 141.696 0.997437 135.405 0.997437" fill="#354A52"/>
<path d="M134.004 4.22235C130.011 4.22235 126.614 6.22494 125.256 9.04754L117.163 9.04754C115.673 9.04771 114.244 9.5236 113.19 10.3706C112.137 11.2175 111.545 12.3662 111.545 13.5639C111.545 16.056 114.06 18.0803 117.163 18.0803L128.862 18.0803C130.388 18.889 132.176 19.3195 134.005 19.3187C139.19 19.3187 143.393 15.9394 143.393 11.7728C143.393 7.60229 139.189 4.22555 134.004 4.22555" fill="#243438"/>
<path d="M123.523 30.7224H126.55V40.8283H123.523V30.7224Z" fill="#243438"/>
<path d="M119.45 40.8283H116.113L121.12 27.4059H124.459L119.45 40.8283Z" fill="#243438"/>
<path d="M130.045 40.8283H133.384L128.376 27.4059H125.036L130.045 40.8283Z" fill="#243438"/>
<path d="M117.269 29.0844L132.806 29.0844V35.3311L117.269 35.3311V29.0844Z" fill="#243438"/>
<path d="M112.212 27.7134L96.6757 30.3977V17.4442L112.212 21.4699V27.7134Z" fill="#243438"/>
<path d="M107.295 17.4442L144.023 17.4442V32.2106L107.295 32.2106V17.4442Z" fill="#34484C"/>
<path d="M122.504 19.5205L139.122 19.5205V26.2022L122.504 26.2022V19.5205Z" fill="#56787F"/>
<path d="M108.96 26.2913H110.201V30.7231H108.96V26.2913Z" fill="#56787F"/>
<path d="M111.803 26.2913H113.044V30.7231H111.803V26.2913Z" fill="#56787F"/>
<path d="M114.67 26.2913H115.912V30.7231H114.67V26.2913Z" fill="#56787F"/>
</svg>
